<svg data-v-fde0c5aa="" xmlns="http://www.w3.org/2000/svg" viewBox="0 0 300 300" class="iconLeft"><!----><defs data-v-fde0c5aa=""><!----></defs><rect data-v-fde0c5aa="" fill="transparent" x="0" y="0" width="300px" height="300px" class="logo-background-square"></rect><defs data-v-fde0c5aa=""><!----></defs><g data-v-fde0c5aa="" id="80140251-060f-4ea9-976e-581448d276bc" fill="#000000" transform="matrix(2.422659384852552,0,0,2.422659384852552,99.88645821363663,137.49907355762608)"><path d="M5.54 8.30C5.54 9.28 4.90 9.97 3.96 9.97C2.79 9.97 2.20 9.04 2.20 6.80C2.20 4.62 2.88 3.91 3.86 3.91C4.69 3.91 5.54 4.54 5.54 6.09ZM7.73 9.91C7.15 9.87 7.01 9.74 7.01 9.06L7.01-0.10L4.83 0.35L4.83 0.56C5.40 0.71 5.54 0.88 5.54 1.37L5.54 4.16C5.10 3.88 4.51 3.70 3.84 3.70C1.93 3.70 0.48 4.75 0.48 6.97C0.48 9.04 1.71 10.42 3.44 10.42C4.12 10.42 5.10 10.11 5.54 9.34L5.54 10.15C5.54 10.15 5.54 10.46 5.94 10.40L7.73 10.12ZM12.10 6.92C12.10 6.92 12.10 8.88 12.10 8.90C11.97 9.24 11.63 9.67 11.03 9.67C10.15 9.67 10.02 8.86 10.02 8.67C10.02 7.88 10.60 7.25 12.10 6.92ZM14.66 9.37C14.57 9.66 14.27 9.66 14.27 9.66C13.61 9.66 13.61 8.74 13.61 8.74L13.61 6.50C13.61 4.84 13.16 3.70 11.48 3.70C11.48 3.70 10.77 3.65 10.15 3.98C9.39 4.38 9.18 4.77 9.06 5.00C8.93 5.22 8.95 5.53 9.11 5.77C9.34 6.09 9.80 6.16 10.12 5.94C10.44 5.70 10.53 5.25 10.29 4.93C10.16 4.76 10.01 4.68 9.81 4.65C9.73 4.63 9.80 4.38 10.29 4.13C11.34 3.63 12.10 4.40 12.10 5.84L12.10 6.68C9.67 7.29 8.50 7.52 8.50 8.99C8.50 10.42 10.11 10.42 10.11 10.42C11.09 10.42 11.91 9.90 12.11 9.25C12.24 10.43 13.40 10.42 13.40 10.42C14.21 10.42 14.77 9.88 14.87 9.45ZM19.39 9.03C19.28 9.28 18.96 9.58 18.55 9.58C17.86 9.58 17.50 9.18 17.50 8.23L17.50 4.03L19.11 4.03L19.17 3.82L17.50 3.82L17.50 1.65L16.02 1.89L16.02 3.82L15.27 3.82L15.32 4.03L16.02 4.03L16.02 8.27C16.02 9.97 16.66 10.42 17.71 10.42C18.59 10.42 19.33 9.77 19.57 9.14L19.39 9.03ZM23.90 6.92C23.90 6.92 23.90 8.88 23.90 8.90C23.77 9.24 23.44 9.67 22.83 9.67C21.95 9.67 21.83 8.86 21.83 8.67C21.83 7.88 22.40 7.25 23.90 6.92ZM26.46 9.37C26.38 9.66 26.07 9.66 26.07 9.66C25.41 9.66 25.41 8.74 25.41 8.74L25.41 6.50C25.41 4.84 24.96 3.70 23.28 3.70C23.28 3.70 22.57 3.65 21.95 3.98C21.20 4.38 20.99 4.77 20.86 5.00C20.73 5.22 20.75 5.53 20.92 5.77C21.14 6.09 21.60 6.16 21.92 5.94C22.25 5.70 22.33 5.25 22.09 4.93C21.97 4.76 21.81 4.68 21.62 4.65C21.53 4.63 21.60 4.38 22.09 4.13C23.14 3.63 23.90 4.40 23.90 5.84L23.90 6.68C21.48 7.29 20.30 7.52 20.30 8.99C20.30 10.42 21.91 10.42 21.91 10.42C22.89 10.42 23.72 9.90 23.91 9.25C24.04 10.43 25.20 10.42 25.20 10.42C26.01 10.42 26.57 9.88 26.67 9.45ZM29.25 7.21L30.86 2.84L32.59 7.21ZM36.40 10.08C36.02 10.05 35.70 10.12 35.24 9.00C35.24 9.00 34.30 6.61 31.72 0.43L31.54 0.43L29.15 6.82C27.86 10.08 27.51 10.07 27.06 10.08L27.06 10.29L30.35 10.29L30.35 10.08C28.27 10.16 29.01 7.98 29.20 7.42L32.68 7.42L33.12 8.54C33.29 8.93 33.73 10.08 32.80 10.08L32.80 10.29L36.40 10.29ZM42.15 8.30C42.15 9.28 41.51 9.97 40.57 9.97C39.40 9.97 38.81 9.04 38.81 6.80C38.81 4.62 39.49 3.91 40.47 3.91C41.30 3.91 42.15 4.54 42.15 6.09ZM44.34 9.91C43.76 9.87 43.62 9.74 43.62 9.06L43.62-0.10L41.44 0.35L41.44 0.56C42.01 0.71 42.15 0.88 42.15 1.37L42.15 4.16C41.71 3.88 41.12 3.70 40.45 3.70C38.54 3.70 37.09 4.75 37.09 6.97C37.09 9.04 38.32 10.42 40.05 10.42C40.73 10.42 41.71 10.11 42.15 9.34L42.15 10.15C42.15 10.15 42.15 10.46 42.55 10.40L44.34 10.12ZM55.12 10.08C54.61 9.95 54.54 9.56 54.54 8.79L54.54 5.88C54.54 4.19 53.86 3.70 52.74 3.70C51.86 3.70 50.96 4.34 50.68 5.19C50.50 4.14 49.90 3.70 48.92 3.70C48.03 3.70 47.21 4.33 46.86 5.14L46.86 3.70L44.67 4.17L44.67 4.38C45.25 4.62 45.37 4.86 45.37 5.35L45.37 8.81C45.37 9.52 45.36 9.93 44.83 10.08L44.83 10.29L47.43 10.29L47.43 10.08C46.94 9.94 46.86 9.58 46.86 8.81L46.86 5.73C46.91 5.24 47.47 4.55 48.09 4.55C48.85 4.55 49.22 5.03 49.22 5.92L49.22 8.79C49.22 9.51 49.20 9.93 48.66 10.08L48.66 10.29L51.28 10.29L51.28 10.08C50.78 9.95 50.71 9.56 50.71 8.79L50.69 5.94C50.69 5.87 50.69 5.81 50.69 5.75C50.69 5.22 51.30 4.55 51.91 4.55C52.67 4.55 53.06 5.03 53.06 5.92L53.06 8.79C53.06 9.51 53.03 9.93 52.50 10.08L52.50 10.29L55.12 10.29L55.12 10.08ZM57.12 2.55C57.58 2.55 57.97 2.18 57.97 1.72C57.97 1.26 57.58 0.88 57.12 0.88C56.66 0.88 56.29 1.26 56.29 1.72C56.29 2.18 56.66 2.55 57.12 2.55ZM58.58 10.08C58.07 9.94 58.00 9.56 58.00 8.79L58.00 3.70L55.82 4.17L55.82 4.38C56.39 4.62 56.53 4.82 56.53 5.29L56.53 8.79C56.53 9.51 56.50 9.91 55.97 10.08L55.97 10.29L58.58 10.29ZM66.09 10.08C65.59 9.95 65.52 9.56 65.52 8.79L65.52 5.88C65.52 4.19 64.78 3.70 63.67 3.70C62.79 3.70 61.74 4.34 61.43 5.18L61.43 3.70L59.25 4.17L59.25 4.38C59.82 4.62 59.95 4.79 59.95 5.28L59.95 8.81C59.95 9.52 59.93 9.93 59.40 10.08L59.40 10.29L62.01 10.29L62.01 10.08C61.52 9.94 61.43 9.58 61.43 8.81L61.43 5.73C61.49 5.19 62.12 4.55 62.75 4.55C63.56 4.55 64.04 5.11 64.04 5.92L64.04 8.79C64.04 9.51 64.01 9.93 63.48 10.08L63.48 10.29L66.09 10.29L66.09 10.08Z"></path></g><defs data-v-fde0c5aa=""><linearGradient data-v-fde0c5aa="" gradientTransform="rotate(25)" id="a1c6b42b-b7da-4f0f-ac69-b96559624ba6" x1="0%" y1="0%" x2="100%" y2="0%"><stop data-v-fde0c5aa="" offset="0%" stop-color="#EA1F59" stop-opacity="1"></stop><stop data-v-fde0c5aa="" offset="100%" stop-color="#FA9169" stop-opacity="1"></stop></linearGradient></defs><g data-v-fde0c5aa="" id="38c33842-5f0e-4d5c-b5f6-318d7448c0a8" stroke="none" fill="url(#a1c6b42b-b7da-4f0f-ac69-b96559624ba6)" transform="matrix(0.692262492536465,0,0,0.692262492536465,-4.508978719255815,79.30134615607645)"><path d="M77.771 118.486h34.859l-1.478-13.697a1.501 1.501 0 0 1 2.539-1.234l12.206 11.91.685-.513a18.02 18.02 0 0 0 1.927-1.668 17.628 17.628 0 0 0 5.195-12.546c0-4.745-1.845-9.204-5.195-12.554a17.638 17.638 0 0 0-12.553-5.203c-1.292 0-2.568.139-3.751.405l-.52.11c-3.227.785-6.175 2.489-8.525 4.931-.556.577-1.542.596-2.121.04a1.502 1.502 0 0 1-.04-2.121 20.673 20.673 0 0 1 6.837-4.703l1.406-.598-1.112-1.049a19.993 19.993 0 0 0-13.767-5.481 19.952 19.952 0 0 0-14.205 5.88c-2.924 2.924-4.847 6.603-5.561 10.637a1.496 1.496 0 0 1-1.013 1.165 13.49 13.49 0 0 0-5.343 3.282 13.39 13.39 0 0 0-3.946 9.53c-.001 7.431 6.045 13.477 13.476 13.477zm3.888-20.331c0-.827.673-1.5 1.5-1.5h18.84c.827 0 1.5.673 1.5 1.5s-.673 1.5-1.5 1.5h-18.84c-.827 0-1.5-.673-1.5-1.5zm1.5 8.258H94.08c.827 0 1.5.673 1.5 1.5s-.673 1.5-1.5 1.5H83.159c-.827 0-1.5-.673-1.5-1.5s.673-1.5 1.5-1.5zM121.48 94.38c0-.392.164-.786.439-1.056l.011-.011c.251-.253.632-.399 1.045-.401h.005c.418 0 .805.147 1.069.412a1.503 1.503 0 0 1-.015 2.117c-.538.551-1.538.574-2.116-.015a1.498 1.498 0 0 1-.438-1.046z"></path><path d="M114.583 108.618l1.203 11.125v.008l1.078 9.988 5.12-5.05c.246-.243.571-.395.916-.426l7.05-.652-15.367-14.993z"></path></g><!----></svg>