<svg data-v-fde0c5aa="" xmlns="http://www.w3.org/2000/svg" viewBox="0 0 300 300" class="iconAbove"><!----><defs data-v-fde0c5aa=""><!----></defs><rect data-v-fde0c5aa="" fill="#002C73" x="0" y="0" width="300px" height="300px" class="logo-background-square"></rect><defs data-v-fde0c5aa=""><!----></defs><g data-v-fde0c5aa="" id="55c4a514-37e2-4644-84ed-b6cc796a4552" fill="#ffffff" transform="matrix(2.975509363383847,0,0,2.975509363383847,19.047836936322582,172.80636304882768)"><path d="M0.32 12.41L0.51 12.41L0.51 12.41Q0.74 12.41 0.95 12.38L0.95 12.38L0.95 12.38Q1.16 12.35 1.31 12.25L1.31 12.25L1.31 12.25Q1.47 12.15 1.56 11.97L1.56 11.97L1.56 11.97Q1.65 11.78 1.65 11.47L1.65 11.47L1.65 7.03L1.65 7.03Q1.65 6.73 1.56 6.54L1.56 6.54L1.56 6.54Q1.47 6.35 1.31 6.25L1.31 6.25L1.31 6.25Q1.16 6.15 0.95 6.11L0.95 6.11L0.95 6.11Q0.74 6.08 0.51 6.08L0.51 6.08L0.46 6.08L0.46 5.49L2.97 5.49L2.97 11.40L2.97 11.40Q2.97 11.73 3.06 11.93L3.06 11.93L3.06 11.93Q3.15 12.13 3.31 12.23L3.31 12.23L3.31 12.23Q3.46 12.34 3.67 12.37L3.67 12.37L3.67 12.37Q3.88 12.41 4.12 12.41L4.12 12.41L4.30 12.41L4.30 13.00L0.32 13.00L0.32 12.41ZM1.46 3.22L1.46 3.22L1.46 3.22Q1.46 2.97 1.52 2.81L1.52 2.81L1.52 2.81Q1.58 2.65 1.69 2.54L1.69 2.54L1.69 2.54Q1.80 2.44 1.94 2.40L1.94 2.40L1.94 2.40Q2.08 2.36 2.26 2.36L2.26 2.36L2.26 2.36Q2.42 2.36 2.56 2.40L2.56 2.40L2.56 2.40Q2.71 2.44 2.81 2.54L2.81 2.54L2.81 2.54Q2.92 2.65 2.98 2.81L2.98 2.81L2.98 2.81Q3.05 2.97 3.05 3.22L3.05 3.22L3.05 3.22Q3.05 3.47 2.98 3.63L2.98 3.63L2.98 3.63Q2.92 3.79 2.81 3.90L2.81 3.90L2.81 3.90Q2.71 4.00 2.56 4.04L2.56 4.04L2.56 4.04Q2.42 4.09 2.26 4.09L2.26 4.09L2.26 4.09Q2.08 4.09 1.94 4.04L1.94 4.04L1.94 4.04Q1.80 4.00 1.69 3.90L1.69 3.90L1.69 3.90Q1.58 3.79 1.52 3.63L1.52 3.63L1.52 3.63Q1.46 3.47 1.46 3.22ZM17.08 13.00L13.35 13.00L13.35 12.41L13.40 12.41L13.40 12.41Q13.62 12.41 13.81 12.38L13.81 12.38L13.81 12.38Q13.99 12.35 14.11 12.25L14.11 12.25L14.11 12.25Q14.24 12.16 14.31 11.99L14.31 11.99L14.31 11.99Q14.39 11.81 14.40 11.53L14.40 11.53L14.40 4.05L11.20 13.00L10.44 13.00L7.19 4.07L7.19 11.40L7.19 11.40Q7.19 11.73 7.26 11.93L7.26 11.93L7.26 11.93Q7.33 12.13 7.46 12.23L7.46 12.23L7.46 12.23Q7.59 12.34 7.78 12.37L7.78 12.37L7.78 12.37Q7.97 12.41 8.20 12.41L8.20 12.41L8.24 12.41L8.24 13.00L5.01 13.00L5.01 12.41L5.19 12.41L5.19 12.41Q5.42 12.41 5.63 12.38L5.63 12.38L5.63 12.38Q5.84 12.35 6.00 12.25L6.00 12.25L6.00 12.25Q6.15 12.15 6.24 11.97L6.24 11.97L6.24 11.97Q6.34 11.78 6.34 11.47L6.34 11.47L6.34 4.54L6.34 4.54Q6.34 4.23 6.24 4.04L6.24 4.04L6.24 4.04Q6.15 3.86 6.00 3.75L6.00 3.75L6.00 3.75Q5.84 3.65 5.63 3.62L5.63 3.62L5.63 3.62Q5.42 3.59 5.19 3.59L5.19 3.59L5.01 3.59L5.01 3.00L8.20 3.00L11.10 11.01L13.97 3.00L17.08 3.00L17.08 3.59L16.90 3.59L16.90 3.59Q16.66 3.59 16.45 3.62L16.45 3.62L16.45 3.62Q16.24 3.66 16.08 3.76L16.08 3.76L16.08 3.76Q15.93 3.87 15.84 4.07L15.84 4.07L15.84 4.07Q15.75 4.27 15.75 4.59L15.75 4.59L15.75 11.40L15.75 11.40Q15.75 11.73 15.84 11.93L15.84 11.93L15.84 11.93Q15.93 12.13 16.08 12.23L16.08 12.23L16.08 12.23Q16.24 12.34 16.45 12.37L16.45 12.37L16.45 12.37Q16.66 12.41 16.90 12.41L16.90 12.41L17.08 12.41L17.08 13.00ZM19.67 10.96L19.67 10.96L19.67 10.96Q19.67 11.62 19.94 11.95L19.94 11.95L19.94 11.95Q20.22 12.27 20.80 12.27L20.80 12.27L20.80 12.27Q21.23 12.27 21.57 12.13L21.57 12.13L21.57 12.13Q21.92 12.00 22.16 11.74L22.16 11.74L22.16 11.74Q22.40 11.49 22.53 11.13L22.53 11.13L22.53 11.13Q22.66 10.77 22.66 10.32L22.66 10.32L22.66 9.19L21.77 9.23L21.77 9.23Q21.17 9.26 20.77 9.38L20.77 9.38L20.77 9.38Q20.37 9.50 20.13 9.71L20.13 9.71L20.13 9.71Q19.88 9.93 19.77 10.24L19.77 10.24L19.77 10.24Q19.67 10.55 19.67 10.96ZM21.36 6.05L21.36 6.05L21.36 6.05Q20.96 6.05 20.71 6.16L20.71 6.16L20.71 6.16Q20.46 6.28 20.32 6.48L20.32 6.48L20.32 6.48Q20.18 6.69 20.13 6.97L20.13 6.97L20.13 6.97Q20.08 7.25 20.08 7.57L20.08 7.57L20.08 7.57Q19.50 7.57 19.20 7.38L19.20 7.38L19.20 7.38Q18.89 7.18 18.89 6.69L18.89 6.69L18.89 6.69Q18.89 6.33 19.09 6.08L19.09 6.08L19.09 6.08Q19.29 5.82 19.64 5.66L19.64 5.66L19.64 5.66Q19.98 5.50 20.44 5.43L20.44 5.43L20.44 5.43Q20.90 5.35 21.42 5.35L21.42 5.35L21.42 5.35Q22.06 5.35 22.54 5.48L22.54 5.48L22.54 5.48Q23.02 5.61 23.34 5.89L23.34 5.89L23.34 5.89Q23.66 6.18 23.82 6.64L23.82 6.64L23.82 6.64Q23.98 7.10 23.98 7.77L23.98 7.77L23.98 11.40L23.98 11.40Q23.98 11.70 24.03 11.89L24.03 11.89L24.03 11.89Q24.08 12.08 24.18 12.20L24.18 12.20L24.18 12.20Q24.28 12.31 24.45 12.36L24.45 12.36L24.45 12.36Q24.62 12.41 24.85 12.41L24.85 12.41L24.89 12.41L24.89 13.00L23.00 13.00L22.78 11.79L22.66 11.79L22.66 11.79Q22.44 12.09 22.24 12.33L22.24 12.33L22.24 12.33Q22.03 12.58 21.79 12.76L21.79 12.76L21.79 12.76Q21.54 12.93 21.23 13.03L21.23 13.03L21.23 13.03Q20.92 13.13 20.48 13.13L20.48 13.13L20.48 13.13Q20.02 13.13 19.62 13.00L19.62 13.00L19.62 13.00Q19.22 12.87 18.93 12.59L18.93 12.59L18.93 12.59Q18.63 12.31 18.47 11.89L18.47 11.89L18.47 11.89Q18.31 11.47 18.31 10.90L18.31 10.90L18.31 10.90Q18.31 9.78 19.10 9.24L19.10 9.24L19.10 9.24Q19.89 8.70 21.50 8.65L21.50 8.65L22.66 8.61L22.66 7.77L22.66 7.77Q22.66 7.40 22.62 7.08L22.62 7.08L22.62 7.08Q22.58 6.76 22.44 6.53L22.44 6.53L22.44 6.53Q22.31 6.30 22.05 6.18L22.05 6.18L22.05 6.18Q21.79 6.05 21.36 6.05ZM29.61 12.41L29.65 12.41L29.65 13.00L25.88 13.00L25.88 12.41L26.00 12.41L26.00 12.41Q26.24 12.41 26.44 12.37L26.44 12.37L26.44 12.37Q26.65 12.34 26.81 12.23L26.81 12.23L26.81 12.23Q26.96 12.13 27.05 11.93L27.05 11.93L27.05 11.93Q27.15 11.73 27.15 11.40L27.15 11.40L27.15 7.03L27.15 7.03Q27.15 6.73 27.05 6.54L27.05 6.54L27.05 6.54Q26.96 6.35 26.80 6.25L26.80 6.25L26.80 6.25Q26.65 6.15 26.44 6.11L26.44 6.11L26.44 6.11Q26.23 6.08 26.00 6.08L26.00 6.08L25.96 6.08L25.96 5.49L28.22 5.49L28.40 6.62L28.47 6.62L28.47 6.62Q28.69 6.23 28.93 5.98L28.93 5.98L28.93 5.98Q29.18 5.74 29.45 5.60L29.45 5.60L29.45 5.60Q29.72 5.46 30.02 5.40L30.02 5.40L30.02 5.40Q30.32 5.35 30.66 5.35L30.66 5.35L30.66 5.35Q31.21 5.35 31.65 5.51L31.65 5.51L31.65 5.51Q32.08 5.67 32.39 6.01L32.39 6.01L32.39 6.01Q32.69 6.34 32.85 6.86L32.85 6.86L32.85 6.86Q33.01 7.38 33.01 8.09L33.01 8.09L33.01 11.40L33.01 11.40Q33.01 11.73 33.09 11.93L33.09 11.93L33.09 11.93Q33.17 12.13 33.31 12.23L33.31 12.23L33.31 12.23Q33.46 12.34 33.65 12.37L33.65 12.37L33.65 12.37Q33.85 12.41 34.08 12.41L34.08 12.41L34.13 12.41L34.13 13.00L31.69 13.00L31.69 8.16L31.69 8.16Q31.69 7.70 31.61 7.35L31.61 7.35L31.61 7.35Q31.53 6.99 31.35 6.75L31.35 6.75L31.35 6.75Q31.17 6.50 30.87 6.37L30.87 6.37L30.87 6.37Q30.58 6.25 30.15 6.25L30.15 6.25L30.15 6.25Q29.67 6.25 29.35 6.43L29.35 6.43L29.35 6.43Q29.03 6.62 28.83 6.93L28.83 6.93L28.83 6.93Q28.63 7.25 28.54 7.66L28.54 7.66L28.54 7.66Q28.46 8.07 28.46 8.52L28.46 8.52L28.46 11.47L28.46 11.47Q28.46 11.78 28.55 11.97L28.55 11.97L28.55 11.97Q28.64 12.15 28.80 12.25L28.80 12.25L28.80 12.25Q28.96 12.35 29.17 12.38L29.17 12.38L29.17 12.38Q29.37 12.41 29.61 12.41L29.61 12.41ZM36.58 10.96L36.58 10.96L36.58 10.96Q36.58 11.62 36.86 11.95L36.86 11.95L36.86 11.95Q37.13 12.27 37.71 12.27L37.71 12.27L37.71 12.27Q38.14 12.27 38.48 12.13L38.48 12.13L38.48 12.13Q38.83 12.00 39.07 11.74L39.07 11.74L39.07 11.74Q39.31 11.49 39.44 11.13L39.44 11.13L39.44 11.13Q39.57 10.77 39.57 10.32L39.57 10.32L39.57 9.19L38.68 9.23L38.68 9.23Q38.08 9.26 37.68 9.38L37.68 9.38L37.68 9.38Q37.28 9.50 37.04 9.71L37.04 9.71L37.04 9.71Q36.79 9.93 36.69 10.24L36.69 10.24L36.69 10.24Q36.58 10.55 36.58 10.96ZM38.27 6.05L38.27 6.05L38.27 6.05Q37.87 6.05 37.62 6.16L37.62 6.16L37.62 6.16Q37.37 6.28 37.23 6.48L37.23 6.48L37.23 6.48Q37.09 6.69 37.04 6.97L37.04 6.97L37.04 6.97Q37.00 7.25 37.00 7.57L37.00 7.57L37.00 7.57Q36.42 7.57 36.11 7.38L36.11 7.38L36.11 7.38Q35.81 7.18 35.81 6.69L35.81 6.69L35.81 6.69Q35.81 6.33 36.00 6.08L36.00 6.08L36.00 6.08Q36.20 5.82 36.55 5.66L36.55 5.66L36.55 5.66Q36.89 5.50 37.35 5.43L37.35 5.43L37.35 5.43Q37.81 5.35 38.33 5.35L38.33 5.35L38.33 5.35Q38.97 5.35 39.45 5.48L39.45 5.48L39.45 5.48Q39.93 5.61 40.25 5.89L40.25 5.89L40.25 5.89Q40.57 6.18 40.73 6.64L40.73 6.64L40.73 6.64Q40.89 7.10 40.89 7.77L40.89 7.77L40.89 11.40L40.89 11.40Q40.89 11.70 40.94 11.89L40.94 11.89L40.94 11.89Q40.99 12.08 41.09 12.20L41.09 12.20L41.09 12.20Q41.19 12.31 41.36 12.36L41.36 12.36L41.36 12.36Q41.53 12.41 41.76 12.41L41.76 12.41L41.80 12.41L41.80 13.00L39.91 13.00L39.69 11.79L39.57 11.79L39.57 11.79Q39.35 12.09 39.15 12.33L39.15 12.33L39.15 12.33Q38.94 12.58 38.70 12.76L38.70 12.76L38.70 12.76Q38.45 12.93 38.14 13.03L38.14 13.03L38.14 13.03Q37.83 13.13 37.39 13.13L37.39 13.13L37.39 13.13Q36.93 13.13 36.53 13.00L36.53 13.00L36.53 13.00Q36.13 12.87 35.84 12.59L35.84 12.59L35.84 12.59Q35.55 12.31 35.38 11.89L35.38 11.89L35.38 11.89Q35.22 11.47 35.22 10.90L35.22 10.90L35.22 10.90Q35.22 9.78 36.01 9.24L36.01 9.24L36.01 9.24Q36.80 8.70 38.41 8.65L38.41 8.65L39.57 8.61L39.57 7.77L39.57 7.77Q39.57 7.40 39.53 7.08L39.53 7.08L39.53 7.08Q39.49 6.76 39.35 6.53L39.35 6.53L39.35 6.53Q39.22 6.30 38.96 6.18L38.96 6.18L38.96 6.18Q38.71 6.05 38.27 6.05ZM49.77 5.78L49.77 5.78L49.77 5.78Q49.77 5.93 49.72 6.07L49.72 6.07L49.72 6.07Q49.68 6.20 49.59 6.30L49.59 6.30L49.59 6.30Q49.50 6.40 49.36 6.46L49.36 6.46L49.36 6.46Q49.22 6.51 49.03 6.51L49.03 6.51L49.03 6.51Q49.03 6.43 49.01 6.35L49.01 6.35L49.01 6.35Q48.99 6.27 48.94 6.20L48.94 6.20L48.94 6.20Q48.88 6.13 48.79 6.08L48.79 6.08L48.79 6.08Q48.71 6.04 48.56 6.04L48.56 6.04L48.56 6.04Q48.38 6.04 48.24 6.08L48.24 6.08L48.24 6.08Q48.10 6.12 47.96 6.21L47.96 6.21L47.96 6.21Q48.20 6.50 48.35 6.90L48.35 6.90L48.35 6.90Q48.51 7.30 48.51 7.90L48.51 7.90L48.51 7.90Q48.51 8.42 48.35 8.86L48.35 8.86L48.35 8.86Q48.19 9.30 47.88 9.63L47.88 9.63L47.88 9.63Q47.57 9.95 47.10 10.13L47.10 10.13L47.10 10.13Q46.62 10.31 45.99 10.31L45.99 10.31L45.99 10.31Q45.90 10.31 45.80 10.31L45.80 10.31L45.80 10.31Q45.70 10.30 45.60 10.30L45.60 10.30L45.60 10.30Q45.49 10.29 45.40 10.28L45.40 10.28L45.40 10.28Q45.32 10.27 45.26 10.27L45.26 10.27L45.26 10.27Q45.12 10.34 45.00 10.42L45.00 10.42L45.00 10.42Q44.88 10.50 44.79 10.60L44.79 10.60L44.79 10.60Q44.69 10.71 44.64 10.83L44.64 10.83L44.64 10.83Q44.58 10.96 44.58 11.12L44.58 11.12L44.58 11.12Q44.58 11.29 44.65 11.40L44.65 11.40L44.65 11.40Q44.71 11.50 44.83 11.56L44.83 11.56L44.83 11.56Q44.95 11.61 45.11 11.63L45.11 11.63L45.11 11.63Q45.27 11.65 45.45 11.65L45.45 11.65L47.04 11.65L47.04 11.65Q47.67 11.65 48.10 11.81L48.10 11.81L48.10 11.81Q48.54 11.96 48.82 12.24L48.82 12.24L48.82 12.24Q49.10 12.52 49.22 12.90L49.22 12.90L49.22 12.90Q49.35 13.29 49.35 13.74L49.35 13.74L49.35 13.74Q49.35 14.34 49.13 14.83L49.13 14.83L49.13 14.83Q48.90 15.31 48.45 15.65L48.45 15.65L48.45 15.65Q47.99 15.99 47.29 16.17L47.29 16.17L47.29 16.17Q46.59 16.36 45.64 16.36L45.64 16.36L45.64 16.36Q44.17 16.36 43.45 15.82L43.45 15.82L43.45 15.82Q42.72 15.28 42.72 14.31L42.72 14.31L42.72 14.31Q42.72 13.90 42.87 13.60L42.87 13.60L42.87 13.60Q43.01 13.29 43.25 13.07L43.25 13.07L43.25 13.07Q43.50 12.85 43.81 12.71L43.81 12.71L43.81 12.71Q44.13 12.58 44.47 12.52L44.47 12.52L44.47 12.52Q44.33 12.46 44.19 12.35L44.19 12.35L44.19 12.35Q44.06 12.25 43.95 12.11L43.95 12.11L43.95 12.11Q43.84 11.96 43.77 11.78L43.77 11.78L43.77 11.78Q43.70 11.59 43.70 11.37L43.70 11.37L43.70 11.37Q43.70 10.95 43.92 10.65L43.92 10.65L43.92 10.65Q44.14 10.34 44.62 10.06L44.62 10.06L44.62 10.06Q44.32 9.93 44.08 9.72L44.08 9.72L44.08 9.72Q43.85 9.50 43.69 9.23L43.69 9.23L43.69 9.23Q43.52 8.95 43.44 8.62L43.44 8.62L43.44 8.62Q43.35 8.29 43.35 7.94L43.35 7.94L43.35 7.94Q43.35 7.33 43.52 6.86L43.52 6.86L43.52 6.86Q43.68 6.38 44.01 6.04L44.01 6.04L44.01 6.04Q44.34 5.71 44.83 5.53L44.83 5.53L44.83 5.53Q45.32 5.35 45.99 5.35L45.99 5.35L45.99 5.35Q46.24 5.35 46.48 5.39L46.48 5.39L46.48 5.39Q46.73 5.43 46.94 5.49L46.94 5.49L46.94 5.49Q47.15 5.56 47.31 5.64L47.31 5.64L47.31 5.64Q47.48 5.72 47.58 5.81L47.58 5.81L47.58 5.81Q47.69 5.70 47.82 5.57L47.82 5.57L47.82 5.57Q47.96 5.43 48.13 5.32L48.13 5.32L48.13 5.32Q48.30 5.21 48.50 5.13L48.50 5.13L48.50 5.13Q48.71 5.06 48.94 5.06L48.94 5.06L48.94 5.06Q49.15 5.06 49.30 5.12L49.30 5.12L49.30 5.12Q49.46 5.17 49.56 5.27L49.56 5.27L49.56 5.27Q49.66 5.37 49.71 5.51L49.71 5.51L49.71 5.51Q49.77 5.64 49.77 5.78ZM43.86 14.23L43.86 14.23L43.86 14.23Q43.86 14.53 43.94 14.80L43.94 14.80L43.94 14.80Q44.02 15.07 44.23 15.26L44.23 15.26L44.23 15.26Q44.43 15.45 44.78 15.56L44.78 15.56L44.78 15.56Q45.13 15.67 45.66 15.67L45.66 15.67L45.66 15.67Q46.42 15.67 46.90 15.54L46.90 15.54L46.90 15.54Q47.39 15.42 47.68 15.19L47.68 15.19L47.68 15.19Q47.97 14.96 48.08 14.65L48.08 14.65L48.08 14.65Q48.20 14.34 48.20 13.97L48.20 13.97L48.20 13.97Q48.20 13.65 48.11 13.44L48.11 13.44L48.11 13.44Q48.02 13.23 47.83 13.11L47.83 13.11L47.83 13.11Q47.65 13.00 47.39 12.95L47.39 12.95L47.39 12.95Q47.12 12.90 46.77 12.90L46.77 12.90L45.40 12.90L45.40 12.90Q45.10 12.90 44.83 12.95L44.83 12.95L44.83 12.95Q44.55 13.00 44.33 13.15L44.33 13.15L44.33 13.15Q44.12 13.29 43.99 13.55L43.99 13.55L43.99 13.55Q43.86 13.81 43.86 14.23ZM44.67 7.90L44.67 7.90L44.67 7.90Q44.67 8.80 44.97 9.21L44.97 9.21L44.97 9.21Q45.27 9.63 45.94 9.63L45.94 9.63L45.94 9.63Q46.29 9.63 46.52 9.53L46.52 9.53L46.52 9.53Q46.76 9.43 46.91 9.21L46.91 9.21L46.91 9.21Q47.06 9.00 47.12 8.67L47.12 8.67L47.12 8.67Q47.19 8.34 47.19 7.88L47.19 7.88L47.19 7.88Q47.19 6.94 46.90 6.49L46.90 6.49L46.90 6.49Q46.61 6.04 45.93 6.04L45.93 6.04L45.93 6.04Q45.25 6.04 44.96 6.50L44.96 6.50L44.96 6.50Q44.67 6.96 44.67 7.90ZM53.79 6.10L53.79 6.10L53.79 6.10Q53.01 6.10 52.59 6.74L52.59 6.74L52.59 6.74Q52.17 7.37 52.09 8.59L52.09 8.59L55.31 8.59L55.31 8.59Q55.31 8.03 55.23 7.57L55.23 7.57L55.23 7.57Q55.15 7.12 54.97 6.79L54.97 6.79L54.97 6.79Q54.79 6.46 54.50 6.28L54.50 6.28L54.50 6.28Q54.21 6.10 53.79 6.10ZM53.96 13.13L53.96 13.13L53.96 13.13Q53.20 13.13 52.59 12.88L52.59 12.88L52.59 12.88Q51.99 12.62 51.57 12.13L51.57 12.13L51.57 12.13Q51.15 11.63 50.93 10.92L50.93 10.92L50.93 10.92Q50.71 10.21 50.71 9.30L50.71 9.30L50.71 9.30Q50.71 7.33 51.52 6.34L51.52 6.34L51.52 6.34Q52.32 5.35 53.81 5.35L53.81 5.35L53.81 5.35Q54.49 5.35 55.03 5.56L55.03 5.56L55.03 5.56Q55.57 5.78 55.95 6.20L55.95 6.20L55.95 6.20Q56.32 6.62 56.52 7.24L56.52 7.24L56.52 7.24Q56.72 7.87 56.72 8.70L56.72 8.70L56.72 9.34L52.06 9.34L52.06 9.34Q52.08 10.10 52.22 10.65L52.22 10.65L52.22 10.65Q52.36 11.20 52.62 11.56L52.62 11.56L52.62 11.56Q52.88 11.92 53.27 12.08L53.27 12.08L53.27 12.08Q53.65 12.25 54.15 12.25L54.15 12.25L54.15 12.25Q54.51 12.25 54.82 12.17L54.82 12.17L54.82 12.17Q55.13 12.09 55.38 11.95L55.38 11.95L55.38 11.95Q55.64 11.81 55.83 11.64L55.83 11.64L55.83 11.64Q56.03 11.46 56.15 11.27L56.15 11.27L56.15 11.27Q56.25 11.31 56.33 11.44L56.33 11.44L56.33 11.44Q56.42 11.57 56.42 11.75L56.42 11.75L56.42 11.75Q56.42 11.96 56.27 12.21L56.27 12.21L56.27 12.21Q56.12 12.45 55.81 12.65L55.81 12.65L55.81 12.65Q55.50 12.86 55.04 13.00L55.04 13.00L55.04 13.00Q54.58 13.13 53.96 13.13ZM66.81 7.98L66.81 7.98L66.81 7.98Q66.81 9.13 66.52 10.06L66.52 10.06L66.52 10.06Q66.23 10.99 65.67 11.64L65.67 11.64L65.67 11.64Q65.10 12.29 64.24 12.64L64.24 12.64L64.24 12.64Q63.39 13.00 62.25 13.00L62.25 13.00L57.96 13.00L57.96 12.41L58.14 12.41L58.14 12.41Q58.38 12.41 58.59 12.37L58.59 12.37L58.59 12.37Q58.80 12.34 58.95 12.23L58.95 12.23L58.95 12.23Q59.11 12.13 59.20 11.93L59.20 11.93L59.20 11.93Q59.29 11.73 59.29 11.40L59.29 11.40L59.29 4.54L59.29 4.54Q59.29 4.23 59.20 4.04L59.20 4.04L59.20 4.04Q59.10 3.86 58.95 3.75L58.95 3.75L58.95 3.75Q58.79 3.65 58.58 3.62L58.58 3.62L58.58 3.62Q58.37 3.59 58.14 3.59L58.14 3.59L57.96 3.59L57.96 3.00L62.25 3.00L62.25 3.00Q63.33 3.00 64.18 3.33L64.18 3.33L64.18 3.33Q65.02 3.66 65.61 4.30L65.61 4.30L65.61 4.30Q66.19 4.94 66.50 5.87L66.50 5.87L66.50 5.87Q66.81 6.79 66.81 7.98ZM60.70 12.28L61.92 12.28L61.92 12.28Q62.75 12.28 63.38 12.00L63.38 12.00L63.38 12.00Q64.00 11.72 64.42 11.17L64.42 11.17L64.42 11.17Q64.84 10.62 65.05 9.82L65.05 9.82L65.05 9.82Q65.26 9.02 65.26 7.98L65.26 7.98L65.26 7.98Q65.26 5.90 64.43 4.80L64.43 4.80L64.43 4.80Q63.59 3.70 61.93 3.70L61.93 3.70L60.70 3.70L60.70 12.28ZM69.67 10.96L69.67 10.96L69.67 10.96Q69.67 11.62 69.94 11.95L69.94 11.95L69.94 11.95Q70.22 12.27 70.80 12.27L70.80 12.27L70.80 12.27Q71.22 12.27 71.57 12.13L71.57 12.13L71.57 12.13Q71.91 12.00 72.16 11.74L72.16 11.74L72.16 11.74Q72.40 11.49 72.53 11.13L72.53 11.13L72.53 11.13Q72.66 10.77 72.66 10.32L72.66 10.32L72.66 9.19L71.76 9.23L71.76 9.23Q71.17 9.26 70.77 9.38L70.77 9.38L70.77 9.38Q70.37 9.50 70.12 9.71L70.12 9.71L70.12 9.71Q69.88 9.93 69.77 10.24L69.77 10.24L69.77 10.24Q69.67 10.55 69.67 10.96ZM71.36 6.05L71.36 6.05L71.36 6.05Q70.96 6.05 70.71 6.16L70.71 6.16L70.71 6.16Q70.46 6.28 70.32 6.48L70.32 6.48L70.32 6.48Q70.18 6.69 70.13 6.97L70.13 6.97L70.13 6.97Q70.08 7.25 70.08 7.57L70.08 7.57L70.08 7.57Q69.50 7.57 69.20 7.38L69.20 7.38L69.20 7.38Q68.89 7.18 68.89 6.69L68.89 6.69L68.89 6.69Q68.89 6.33 69.09 6.08L69.09 6.08L69.09 6.08Q69.29 5.82 69.63 5.66L69.63 5.66L69.63 5.66Q69.98 5.50 70.44 5.43L70.44 5.43L70.44 5.43Q70.90 5.35 71.42 5.35L71.42 5.35L71.42 5.35Q72.06 5.35 72.54 5.48L72.54 5.48L72.54 5.48Q73.01 5.61 73.34 5.89L73.34 5.89L73.34 5.89Q73.66 6.18 73.82 6.64L73.82 6.64L73.82 6.64Q73.98 7.10 73.98 7.77L73.98 7.77L73.98 11.40L73.98 11.40Q73.98 11.70 74.03 11.89L74.03 11.89L74.03 11.89Q74.07 12.08 74.18 12.20L74.18 12.20L74.18 12.20Q74.28 12.31 74.45 12.36L74.45 12.36L74.45 12.36Q74.61 12.41 74.85 12.41L74.85 12.41L74.89 12.41L74.89 13.00L72.99 13.00L72.78 11.79L72.66 11.79L72.66 11.79Q72.44 12.09 72.24 12.33L72.24 12.33L72.24 12.33Q72.03 12.58 71.78 12.76L71.78 12.76L71.78 12.76Q71.54 12.93 71.23 13.03L71.23 13.03L71.23 13.03Q70.92 13.13 70.48 13.13L70.48 13.13L70.48 13.13Q70.01 13.13 69.61 13.00L69.61 13.00L69.61 13.00Q69.21 12.87 68.92 12.59L68.92 12.59L68.92 12.59Q68.63 12.31 68.47 11.89L68.47 11.89L68.47 11.89Q68.30 11.47 68.30 10.90L68.30 10.90L68.30 10.90Q68.30 9.78 69.10 9.24L69.10 9.24L69.10 9.24Q69.89 8.70 71.50 8.65L71.50 8.65L72.66 8.61L72.66 7.77L72.66 7.77Q72.66 7.40 72.62 7.08L72.62 7.08L72.62 7.08Q72.58 6.76 72.44 6.53L72.44 6.53L72.44 6.53Q72.30 6.30 72.05 6.18L72.05 6.18L72.05 6.18Q71.79 6.05 71.36 6.05ZM79.20 12.39L79.20 12.39L79.20 12.39Q79.45 12.39 79.67 12.37L79.67 12.37L79.67 12.37Q79.88 12.34 80.10 12.30L80.10 12.30L80.10 12.91L80.10 12.91Q80.01 12.95 79.86 13.00L79.86 13.00L79.86 13.00Q79.72 13.04 79.55 13.07L79.55 13.07L79.55 13.07Q79.39 13.10 79.20 13.11L79.20 13.11L79.20 13.11Q79.02 13.13 78.85 13.13L78.85 13.13L78.85 13.13Q78.32 13.13 77.94 13.02L77.94 13.02L77.94 13.02Q77.55 12.91 77.31 12.65L77.31 12.65L77.31 12.65Q77.06 12.40 76.94 11.98L76.94 11.98L76.94 11.98Q76.82 11.57 76.82 10.96L76.82 10.96L76.82 6.29L75.76 6.29L75.76 5.73L75.76 5.73Q76.01 5.73 76.31 5.63L76.31 5.63L76.31 5.63Q76.62 5.52 76.85 5.28L76.85 5.28L76.85 5.28Q77.09 5.02 77.24 4.67L77.24 4.67L77.24 4.67Q77.38 4.31 77.49 3.77L77.49 3.77L78.13 3.77L78.13 5.49L79.97 5.49L79.97 6.29L78.13 6.29L78.13 11.01L78.13 11.01Q78.13 11.72 78.43 12.06L78.43 12.06L78.43 12.06Q78.72 12.39 79.20 12.39ZM82.48 10.96L82.48 10.96L82.48 10.96Q82.48 11.62 82.75 11.95L82.75 11.95L82.75 11.95Q83.03 12.27 83.61 12.27L83.61 12.27L83.61 12.27Q84.03 12.27 84.38 12.13L84.38 12.13L84.38 12.13Q84.72 12.00 84.97 11.74L84.97 11.74L84.97 11.74Q85.21 11.49 85.34 11.13L85.34 11.13L85.34 11.13Q85.47 10.77 85.47 10.32L85.47 10.32L85.47 9.19L84.57 9.23L84.57 9.23Q83.98 9.26 83.58 9.38L83.58 9.38L83.58 9.38Q83.18 9.50 82.93 9.71L82.93 9.71L82.93 9.71Q82.69 9.93 82.58 10.24L82.58 10.24L82.58 10.24Q82.48 10.55 82.48 10.96ZM84.17 6.05L84.17 6.05L84.17 6.05Q83.77 6.05 83.52 6.16L83.52 6.16L83.52 6.16Q83.27 6.28 83.13 6.48L83.13 6.48L83.13 6.48Q82.99 6.69 82.94 6.97L82.94 6.97L82.94 6.97Q82.89 7.25 82.89 7.57L82.89 7.57L82.89 7.57Q82.31 7.57 82.01 7.38L82.01 7.38L82.01 7.38Q81.70 7.18 81.70 6.69L81.70 6.69L81.70 6.69Q81.70 6.33 81.90 6.08L81.90 6.08L81.90 6.08Q82.10 5.82 82.44 5.66L82.44 5.66L82.44 5.66Q82.79 5.50 83.25 5.43L83.25 5.43L83.25 5.43Q83.71 5.35 84.23 5.35L84.23 5.35L84.23 5.35Q84.87 5.35 85.35 5.48L85.35 5.48L85.35 5.48Q85.83 5.61 86.15 5.89L86.15 5.89L86.15 5.89Q86.47 6.18 86.63 6.64L86.63 6.64L86.63 6.64Q86.79 7.10 86.79 7.77L86.79 7.77L86.79 11.40L86.79 11.40Q86.79 11.70 86.84 11.89L86.84 11.89L86.84 11.89Q86.88 12.08 86.99 12.20L86.99 12.20L86.99 12.20Q87.09 12.31 87.26 12.36L87.26 12.36L87.26 12.36Q87.42 12.41 87.66 12.41L87.66 12.41L87.70 12.41L87.70 13.00L85.80 13.00L85.59 11.79L85.47 11.79L85.47 11.79Q85.25 12.09 85.05 12.33L85.05 12.33L85.05 12.33Q84.84 12.58 84.59 12.76L84.59 12.76L84.59 12.76Q84.35 12.93 84.04 13.03L84.04 13.03L84.04 13.03Q83.73 13.13 83.29 13.13L83.29 13.13L83.29 13.13Q82.82 13.13 82.42 13.00L82.42 13.00L82.42 13.00Q82.02 12.87 81.73 12.59L81.73 12.59L81.73 12.59Q81.44 12.31 81.28 11.89L81.28 11.89L81.28 11.89Q81.12 11.47 81.12 10.90L81.12 10.90L81.12 10.90Q81.12 9.78 81.91 9.24L81.91 9.24L81.91 9.24Q82.70 8.70 84.31 8.65L84.31 8.65L85.47 8.61L85.47 7.77L85.47 7.77Q85.47 7.40 85.43 7.08L85.43 7.08L85.43 7.08Q85.39 6.76 85.25 6.53L85.25 6.53L85.25 6.53Q85.11 6.30 84.86 6.18L84.86 6.18L84.86 6.18Q84.60 6.05 84.17 6.05Z"></path></g><defs data-v-fde0c5aa=""><!----></defs><g data-v-fde0c5aa="" id="33630b5f-d1ed-4caa-a8b4-8de73b9097c9" stroke="none" fill="#FFD009" transform="matrix(1.8806833134048015,0,0,1.8806833134048015,105.04377069156902,74.94100579089384)"><path d="M40.4 14c.1-.5.1-1.1.1-1.6 0-5.8-4.7-10.5-10.5-10.5-4 0-7.6 2.3-9.4 5.8-1.4-.8-3-1.3-4.6-1.3-4.5 0-8.2 3.3-8.8 7.6-4 .4-7.2 3.7-7.2 7.8 0 4.3 3.5 7.9 7.9 7.9.6 0 1-.4 1-1s-.4-1-1-1c-3.2 0-5.9-2.6-5.9-5.9C2 18.6 4.6 16 7.9 16H8c.5 0 1-.4 1-1 .2-3.7 3.2-6.6 6.9-6.6 1.6 0 3.2.6 4.4 1.6.3.2.6.3.9.2.3-.1.6-.3.7-.6 1.2-3.4 4.4-5.7 8-5.7 4.7 0 8.5 3.8 8.5 8.5 0 .8-.1 1.6-.4 2.4-.1.3 0 .7.2.9.3.4 1 .4 1.7.3 3.2 0 5.9 2.6 5.9 5.9 0 3.2-2.6 5.9-5.9 5.9-.6 0-1 .4-1 1s.4 1 1 1c4.3 0 7.9-3.5 7.9-7.9.2-4.3-3.2-7.8-7.4-7.9z"></path><path d="M30.5 19.5s0-.1 0 0c-.2-.3-.5-.4-.8-.4-.3 0-.6.1-.8.4l-6 8c-.3.4-.2 1.1.2 1.4.4.3 1.1.2 1.4-.2l4.2-5.6v22.1c0 .6.4 1 1 1s1-.4 1-1V23.1l4.2 5.6c.2.3.5.4.8.4.2 0 .4-.1.6-.2.4-.3.5-1 .2-1.4l-6-8zM24.9 36.4c-.4-.3-1.1-.2-1.4.2l-4.2 5.6V20.1c0-.6-.4-1-1-1s-1 .4-1 1v22.1l-4.2-5.6c-.3-.4-1-.5-1.4-.2-.4.3-.5 1-.2 1.4l6 8c.5.5 1 .5 1.5 0l6-8c.4-.5.4-1.1-.1-1.4z"></path></g><!----></svg>